<?xml version="1.0" encoding="UTF-8" standalone="no"?>
<svg
   width="31"
   height="31"
   viewBox="0 0 31 31"
   fill="none"
   version="1.1"
   id="svg13"
   sodipodi:docname="favicon.svg"
   inkscape:export-filename="logo.png"
   inkscape:export-xdpi="3096.7742"
   inkscape:export-ydpi="3096.7742"
   inkscape:version="1.2.2 (b0a84865, 2022-12-01)"
   xmlns:inkscape="http://www.inkscape.org/namespaces/inkscape"
   xmlns:sodipodi="http://sodipodi.sourceforge.net/DTD/sodipodi-0.dtd"
   xmlns="http://www.w3.org/2000/svg"
   xmlns:svg="http://www.w3.org/2000/svg">
  <sodipodi:namedview
     id="namedview15"
     pagecolor="#ffffff"
     bordercolor="#000000"
     borderopacity="0.25"
     inkscape:showpageshadow="2"
     inkscape:pageopacity="0.0"
     inkscape:pagecheckerboard="0"
     inkscape:deskcolor="#d1d1d1"
     showgrid="false"
     inkscape:zoom="15.621181"
     inkscape:cx="4.2570405"
     inkscape:cy="11.61884"
     inkscape:window-width="1440"
     inkscape:window-height="781"
     inkscape:window-x="0"
     inkscape:window-y="25"
     inkscape:window-maximized="0"
     inkscape:current-layer="g6" />
  <g
     clip-path="url(#clip0_1302_12)"
     id="g6">
    <rect
       style="fill:#ffffff;stroke-width:2.82737"
       id="rect354"
       width="29.270679"
       height="29.270679"
       x="0.92977905"
       y="0.94327557"
       ry="7.1355786" />
    <text
       xml:space="preserve"
       style="font-weight:bold;font-size:106.66666667px;font-family:'Space Grotesk';-inkscape-font-specification:'Space Grotesk Bold';fill:#851d40;stroke-width:2.50583"
       x="21.821732"
       y="17.313957"
       id="text449"><tspan
         sodipodi:role="line"
         id="tspan447" /></text>
    <text
       xml:space="preserve"
       style="font-weight:bold;font-size:106.667px;font-family:'Space Grotesk';-inkscape-font-specification:'Space Grotesk Bold';fill:#851d40;stroke-width:2.50583"
       x="14.038212"
       y="16.845854"
       id="text453"><tspan
         sodipodi:role="line"
         id="tspan451" /></text>
    <g
       aria-label="t"
       transform="matrix(1.1119629,-0.55747825,0,1.1119629,-2.6764698,-3.1784683)"
       id="text461"
       style="font-weight:bold;font-size:15.4154px;font-family:'Space Grotesk';-inkscape-font-specification:'Space Grotesk Bold';fill:#851d40;stroke-width:14.4856" />
    <g
       id="g352"
       transform="translate(-5.6032715e-7,0.10614361)">
      <path
         id="path2"
         style="fill:#851d40;fill-opacity:1;stroke-width:0.719098"
         d="m 15.563715,4.3800214 c -0.264016,0 -0.528706,0.049966 -0.778086,0.1502803 L 4.8544896,8.5035998 C 4.5897726,8.6094867 4.4176937,8.8654421 4.4176937,9.1496645 V 21.218434 c 0,0.571249 0.3483679,1.080356 0.8778053,1.29213 l 10.008386,4.004198 c 0.167191,0.06688 0.35247,0.06688 0.519661,0 l 10.011195,-4.004198 c 0.529397,-0.211774 0.877804,-0.723685 0.877804,-1.29213 V 9.1496645 c 0,-0.2842224 -0.1735,-0.5401778 -0.4382,-0.6460647 L 16.341802,4.5303017 C 16.092422,4.4299878 15.827732,4.3800214 15.563715,4.3800214 Z m 0,1.394657 c 0.08779,0 0.176235,0.017124 0.259831,0.050561 L 18.913421,7.0597855 10.339017,10.489547 6.9893122,9.1496645 15.303885,5.8252401 c 0.0836,-0.033438 0.172046,-0.050561 0.25983,-0.050562 z m 5.224698,2.037913 3.349705,1.3370731 -8.574403,3.4269525 -3.349705,-1.337074 z m 4.528071,2.3679676 v 11.035067 l -9.056142,3.622176 V 13.802735 Z" />
      <path
         d="m 22.231895,19.338636 c -0.123103,0.05434 -0.302162,0.178256 -0.425264,0.232645 -0.246205,0.108824 -0.358116,-0.0096 -0.358116,-0.334192 V 16.27144 l 0.738614,-0.326322 c 0.369308,-0.163156 0.593131,-0.49706 0.593131,-0.832794 0,-0.346924 -0.223823,-0.483052 -0.593131,-0.319891 l -0.738614,0.326322 v -0.760997 c 0,-0.402881 -0.324542,-0.595229 -0.727422,-0.417234 -0.402881,0.177996 -0.738615,0.662056 -0.738615,1.064936 v 0.760997 l -0.324542,0.14337 c -0.358117,0.158211 -0.593129,0.49706 -0.593129,0.843987 0,0.335732 0.235012,0.466917 0.593129,0.308699 l 0.324542,-0.143371 v 2.920885 c 0,1.555566 0.772187,1.460615 1.533184,1.124404 0.760996,-0.336215 1.264598,-0.827293 1.264598,-1.342084 0,-0.346925 -0.212631,-0.454424 -0.548365,-0.283713 z"
         style="font-weight:bold;font-size:15.4154px;font-family:'Visby Round CF';-inkscape-font-specification:'Visby Round CF Bold';fill:#851d40;stroke-width:10.5162"
         id="path400" />
    </g>
  </g>
  <defs
     id="defs11">
    <clipPath
       id="clip0_1302_12">
      <rect
         width="31"
         height="31"
         fill="white"
         id="rect8" />
    </clipPath>
  </defs>
</svg>
