<svg width="88" height="88" viewBox="0 0 88 88" xmlns="http://www.w3.org/2000/svg">
<path fill-rule="evenodd" clip-rule="evenodd" d="M17.3139 2.43376L14.901 4.86752V32.9969V61.1265L24.7697 61.2505C32.7171 61.3502 34.9575 61.4571 36.2772 61.7998C37.1786 62.0337 38.4982 62.5216 39.2095 62.8836C39.9209 63.2457 40.9339 63.9746 41.4606 64.5037C41.9874 65.0328 42.7178 66.1227 43.0838 66.9256L43.7491 68.3855L44.1151 67.283C44.3161 66.6767 45.0183 65.5802 45.675 64.8466C46.3317 64.113 47.438 63.2231 48.1337 62.8692C48.8293 62.515 50.1362 62.0337 51.0375 61.7998C52.3572 61.4571 54.5976 61.3502 62.5451 61.2505L72.4137 61.1265V32.9869V4.84704L69.9906 2.42352L67.5675 0H43.6472H19.7269L17.3139 2.43376ZM20.6523 4.05119V7.0521L22.1555 7.35038C22.9821 7.51449 24.3349 7.81565 25.1615 8.01993C25.9879 8.22421 27.1397 8.63487 27.7209 8.93263C28.3017 9.23038 28.9017 9.74817 29.0536 10.0832C29.2653 10.5498 29.2313 10.8846 28.908 11.5121C28.6761 11.9629 28.141 12.5112 27.7193 12.7302C27.2974 12.9492 26.5445 13.1285 26.0457 13.1285C25.5471 13.1285 24.9477 13.0547 24.7135 12.9644C24.4795 12.8743 24.0058 12.2413 23.661 11.5578C23.3162 10.8743 22.7206 9.94116 22.3379 9.48402C21.9549 9.02689 21.419 8.53326 21.1469 8.38701L20.6523 8.12129V10.894V13.6668L24.8897 13.5946L29.1268 13.5223L30.2396 11.9469C31.2051 10.5803 31.3538 10.1877 31.3617 8.98383L31.3706 7.59615L30.8388 7.88182C30.5463 8.0391 29.7563 8.13179 29.0829 8.08794C28.0322 8.01967 27.7833 7.8897 27.3272 7.17052C27.0349 6.70971 26.5235 5.88261 26.191 5.33253C25.8582 4.78245 25.2112 4.0567 24.7532 3.71956C24.2949 3.38242 23.7436 2.99855 23.5279 2.86621C23.193 2.66062 23.1896 2.59078 23.5054 2.38676C23.7088 2.25521 24.297 2.21189 24.8125 2.29066C25.3281 2.36943 26.8088 2.70211 28.1028 3.03032C29.3968 3.35827 30.6613 3.70959 30.9131 3.81068C31.3162 3.97294 31.3706 3.8196 31.3706 2.52251V1.05028H26.0114H20.6523V4.05119ZM32.4162 2.88827V4.72626H35.2919H38.1675V2.88827V1.05028H35.2919H32.4162V2.88827ZM44.1802 1.84613C44.1802 2.37284 44.335 2.69239 44.6377 2.79033C44.8894 2.87199 45.2716 3.00301 45.4873 3.08178C45.7469 3.17631 45.5924 3.31389 45.0298 3.48824C44.5627 3.63344 44.1802 3.91203 44.1802 4.10791C44.1802 4.3857 44.8105 4.46369 47.0558 4.46369H49.9315V2.75698V1.05028H47.0558H44.1802V1.84613ZM55.9442 1.84613C55.9442 2.37284 56.0989 2.69239 56.4016 2.79033C56.6534 2.87199 57.0356 3.00301 57.2513 3.08178C57.5109 3.17631 57.3564 3.31389 56.7938 3.48824C56.2349 3.6618 55.9442 3.91859 55.9442 4.23919C55.9442 4.52828 56.1303 4.72626 56.4024 4.72626C56.6544 4.72626 57.44 4.31271 58.1477 3.80726C58.8556 3.30182 59.5609 2.89326 59.7154 2.89903C59.8699 2.90507 60.8738 3.55493 61.9464 4.34317L63.8969 5.77654H59.9204H55.9442V7.88497V9.99341L56.6903 9.43939L57.4361 8.88536L59.762 9.70905C61.0411 10.162 62.1825 10.627 62.2983 10.7423C62.4141 10.8578 62.1493 11.1017 61.7101 11.2845C61.0134 11.5743 60.9112 11.7471 60.9112 12.6351V13.6536H63.7868H66.6624V7.35196V1.05028H61.3033H55.9442V1.84613ZM35.684 6.08112C34.8213 6.21319 33.733 6.28172 33.2659 6.23315L32.4162 6.14466L32.434 7.33909C32.4494 8.39147 32.4853 8.46315 32.7352 7.94274C32.8912 7.61768 33.2363 7.35196 33.5019 7.35196C33.7675 7.35196 33.9848 7.47589 33.9848 7.62765C33.9848 7.77916 33.7997 8.26281 33.5733 8.70235C33.3472 9.14163 33.2 9.53234 33.2465 9.57041C33.2931 9.60822 34.2804 9.89258 35.4404 10.2024C36.9699 10.6107 38.317 10.7654 40.342 10.7654H43.1345V10.1089C43.1345 9.65522 42.9931 9.4554 42.677 9.4617C42.4253 9.46669 41.4549 9.63999 40.5203 9.84637C39.5857 10.0527 38.6741 10.226 38.4943 10.231C38.2577 10.2376 38.1675 9.62371 38.1675 8.00838C38.1675 6.04567 38.1124 5.78047 37.71 5.80857C37.4583 5.82616 36.5467 5.94878 35.684 6.08112ZM44.1802 6.56425V7.35196H47.0558H49.9315V6.56425V5.77654H47.0558H44.1802V6.56425ZM4.77094 15.0321L0 19.8293V47.9673V76.1053L15.6199 76.2151C29.1958 76.3104 31.4623 76.3829 32.9391 76.7681C33.8737 77.012 35.1565 77.4082 35.7899 77.6485C36.4233 77.889 37.6096 78.5798 38.4261 79.1835C39.278 79.8134 40.3632 80.9616 40.9723 81.8777C41.5558 82.7554 42.3317 84.2765 42.6959 85.2577C43.0603 86.239 43.4349 87.2782 43.5287 87.567C43.6566 87.9619 43.8448 87.6361 44.2869 86.2542C44.61 85.2433 45.0866 84.0027 45.3454 83.4972C45.6044 82.9918 46.224 82.0155 46.7223 81.3276C47.2205 80.6399 48.2853 79.6043 49.0889 79.0264C49.9226 78.4267 51.4161 77.701 52.5679 77.3355C53.6779 76.9834 55.7865 76.5714 57.2536 76.4202C58.7471 76.2663 65.9488 76.1453 73.6178 76.1453H87.3147V47.982V19.8185L82.6719 15.1608C80.1183 12.5989 77.942 10.5028 77.8356 10.5028C77.7292 10.5028 77.6421 23.077 77.6421 38.4457V66.3887L65.6821 66.5011C55.775 66.5943 53.4089 66.688 51.8966 67.0462C50.8927 67.284 49.4622 67.7779 48.718 68.1437C47.9734 68.5095 46.8741 69.2867 46.275 69.8706C45.6758 70.4548 44.8513 71.6424 44.4429 72.5097L43.7002 74.0867L43.1614 72.8631C42.8653 72.1904 42.2433 71.1588 41.7796 70.5706C41.3158 69.9827 40.4144 69.169 39.7766 68.7626C39.1384 68.3561 37.8977 67.7887 37.0196 67.5017C36.1412 67.2147 34.5024 66.8561 33.3778 66.7051C32.2325 66.5512 26.5682 66.4302 20.5038 66.4302H9.67494L9.60854 38.3326L9.54188 10.235L4.77094 15.0321ZM37.3832 12.7346V13.6536H40.2589H43.1345V12.7346V11.8156H40.2589H37.3832V12.7346ZM49.1472 12.7346V13.6536H52.0228H54.8985V12.7346V11.8156H52.0228H49.1472V12.7346ZM20.6523 16.4106V17.8547H22.8357C24.6706 17.8547 25.1566 17.7605 25.8799 17.264C26.3534 16.9392 27.0328 16.2893 27.3899 15.8198L28.039 14.9665H24.3456H20.6523V16.4106ZM30.0248 15.6885C29.8669 16.0858 29.5756 16.9316 29.3777 17.5683C29.1798 18.205 29.0178 19.0024 29.0178 19.3406C29.0178 19.8941 29.1349 19.9553 30.1942 19.9553H31.3706V18.8814C31.3706 18.089 31.2166 17.6786 30.7824 17.3149L30.1942 16.8221L30.7824 16.8131C31.2785 16.8058 31.3706 16.6608 31.3706 15.8855C31.3706 15.1377 31.272 14.9665 30.8412 14.9665C30.5076 14.9665 30.2057 15.2335 30.0248 15.6885ZM37.2212 15.3228C37.0601 15.5076 35.913 15.8175 34.6723 16.0115C33.4313 16.2053 32.4162 16.4631 32.4162 16.5842C32.4162 16.7055 34.8279 16.8045 37.7754 16.8045H43.1345V15.8855V14.9665L40.3242 14.9765C38.3777 14.9833 37.424 15.0899 37.2212 15.3228ZM49.1472 15.8855V16.8045H52.0228H54.8985V15.8855V14.9665H52.0228H49.1472V15.8855ZM62.4797 15.0513C62.4797 15.098 63.3296 15.7185 64.3685 16.4298L66.2572 17.7235L64.6952 17.8547L63.1333 17.986L64.0482 18.6278C64.5515 18.9809 65.3454 19.5559 65.8128 19.9062L66.6624 20.5427V17.7547V14.9665H64.5711C63.4208 14.9665 62.4797 15.0048 62.4797 15.0513ZM35.684 17.9866C35.5402 18.0364 34.746 18.1538 33.9194 18.2473L32.4162 18.4177V19.1865V19.9553H37.486C41.8677 19.9553 42.5772 19.8989 42.7144 19.5399C42.8017 19.3115 42.8731 18.8389 42.8731 18.4896V17.8547L39.4093 17.8755C37.5043 17.8868 35.8278 17.9369 35.684 17.9866ZM48.7891 18.4455C48.7025 18.7703 48.6299 19.243 48.628 19.4958C48.6246 19.908 48.9467 19.9553 51.7614 19.9553H54.8985V18.905V17.8547H51.9227H48.9467L48.7891 18.4455ZM55.9442 18.905V19.9553L57.9702 19.9469L59.9962 19.9382L61.4306 18.8966L62.865 17.8547H59.4046H55.9442V18.905ZM20.6523 23.2256V27.5698H22.8822H25.1121L24.5161 26.7606C24.0322 26.1039 23.9219 25.6218 23.9302 24.2005C23.936 23.2377 24.0712 22.079 24.2304 21.6258C24.445 21.0161 24.4421 20.6453 24.2202 20.2C24.0552 19.8689 23.626 19.5197 23.2665 19.4239C22.907 19.3278 22.1719 19.1665 21.6326 19.0652L20.6523 18.8811V23.2256ZM29.0178 20.4306C29.0178 20.5671 29.1942 21.103 29.4099 21.6216C29.6256 22.1399 29.802 23.2603 29.802 24.1113C29.802 25.3238 29.6622 25.8655 29.1563 26.6141L28.5106 27.5698H29.9406H31.3706V24.419C31.3706 21.7093 31.3123 21.2682 30.9533 21.2682C30.7241 21.2682 30.1947 21.0237 29.7769 20.7252C29.3594 20.4264 29.0178 20.2938 29.0178 20.4306ZM32.743 21.1794C32.5072 21.275 32.4162 22.1858 32.4162 24.4529V27.5937L33.3966 27.4157C33.9359 27.3178 35.0532 27.0295 35.8796 26.775C36.7062 26.5206 37.9704 25.9332 38.6893 25.4701C39.408 25.0066 40.2963 24.2696 40.6628 23.8319C41.0296 23.3942 41.5615 22.5792 41.8452 22.0207L42.361 21.0056L37.7153 21.0263C35.1604 21.0376 32.9229 21.1067 32.743 21.1794ZM47.3518 22.4285C46.9121 23.2112 46.0185 24.2995 45.3663 24.8472C44.4006 25.6581 44.1802 26.0036 44.1802 26.7065V27.5698H49.5393H54.8985V27.0696C54.8985 26.7567 54.4711 26.3179 53.7569 25.8975C53.1289 25.5278 51.9977 24.5469 51.243 23.7174C50.4883 22.8882 49.748 21.9385 49.5979 21.6077C49.4311 21.2403 49.096 21.0056 48.7381 21.0056C48.3007 21.0056 47.9481 21.3677 47.3518 22.4285ZM55.9442 21.7613C55.9442 22.4295 56.073 22.5511 57.0552 22.8097C57.6664 22.9707 59.5779 23.2311 61.3033 23.3887C63.0287 23.5459 64.8226 23.7295 65.29 23.7962C65.766 23.8642 66.1396 24.0724 66.1396 24.2699C66.1396 24.4844 65.6923 24.6892 64.9943 24.7945C64.3645 24.8893 63.1586 25.3826 62.3147 25.8904C61.4709 26.3982 60.6082 26.984 60.3977 27.192C60.0642 27.521 60.4435 27.5698 63.3387 27.5698H66.6624V24.2877V21.0056H61.3033H55.9442V21.7613ZM20.6523 35.0531V41.486H26.0114H31.3706V37.4162V33.3464H29.9526C29.1728 33.3464 27.9321 33.4861 27.1951 33.657L25.8556 33.9676L25.0235 33.1319L24.1914 32.2961H27.781H31.3706V30.4581V28.6201H26.0114H20.6523V35.0531ZM36.0398 29.4133C37.5294 29.8274 38.8051 30.2231 38.8744 30.2927C38.9437 30.3625 38.6365 30.6083 38.1918 30.8394C37.7022 31.0935 37.3832 31.4637 37.3832 31.7778V32.2961H40.2589H43.1345V30.4581V28.6201L38.2329 28.6403L33.3312 28.6605L36.0398 29.4133ZM44.1802 30.4581V32.2961H47.0558H49.9315V30.4581V28.6201H47.0558H44.1802V30.4581ZM55.9923 29.3398C56.0469 29.8159 56.2519 30.0913 56.5977 30.1533C56.8853 30.2045 57.2223 30.3431 57.3467 30.4613C57.4711 30.5794 57.2063 30.8664 56.7585 31.099C56.3107 31.3317 55.9442 31.6961 55.9442 31.9091C55.9442 32.122 56.1499 32.2922 56.4016 32.2877C56.6534 32.283 57.498 31.8151 58.2787 31.2479L59.6982 30.2168L61.4157 31.4262C62.3605 32.091 63.3055 32.7952 63.516 32.9909C63.8393 33.2912 63.2807 33.3464 59.9214 33.3464H55.9442V37.4162V41.486H58.5926H61.2408L62.5145 40.567C63.2148 40.0616 63.9136 39.648 64.067 39.648C64.2205 39.648 64.8673 40.0083 65.5043 40.4484L66.6624 41.2487V34.9344V28.6201H61.286H55.9094L55.9923 29.3398ZM37.3832 34.3966V35.4469H40.2589H43.1345V34.3966V33.3464H40.2589H37.3832V34.3966ZM44.1802 34.3966V35.4469H47.0558H49.9315V34.3966V33.3464H47.0558H44.1802V34.3966ZM37.3832 37.4162V38.3352H40.2589H43.1345V37.4162V36.4972H40.2589H37.3832V37.4162ZM44.1802 37.4162V38.3352H47.0558H49.9315V37.4162V36.4972H47.0558H44.1802V37.4162ZM37.3832 40.567V41.486H40.2589H43.1345V40.567V39.648H40.2589H37.3832V40.567ZM44.1802 40.567V41.486H47.0558H49.9315V40.567V39.648H47.0558H44.1802V40.567ZM22.6129 42.921C21.7594 43.1313 21.1924 43.1549 20.9791 42.989C20.7213 42.7884 20.6523 43.4894 20.6523 46.3115C20.6523 48.2787 20.7046 49.8883 20.7686 49.8883C20.8324 49.8883 21.7568 49.4892 22.8226 49.0013C23.8887 48.5135 25.4504 47.6711 26.2932 47.1294C27.1363 46.5878 28.5647 45.4322 29.4677 44.5615C30.3704 43.6906 31.1091 42.8787 31.1091 42.7571C31.1091 42.6358 29.4917 42.5502 27.5146 42.5676C25.5377 42.5846 23.3319 42.7437 22.6129 42.921ZM37.9513 43.9345C37.195 44.7036 35.7564 45.8261 34.7544 46.4289C33.7521 47.0318 32.8162 47.5251 32.6743 47.5251C32.5323 47.5251 32.4162 47.6433 32.4162 47.7877C32.4162 47.9518 33.9848 48.0503 36.599 48.0503H40.7817V45.5742V43.0982L41.6295 43.3424C42.0959 43.4766 42.6253 43.5866 42.8059 43.5866C42.9868 43.5866 43.1345 43.3503 43.1345 43.0615C43.1345 42.5844 42.9602 42.5363 41.2303 42.5363H39.3261L37.9513 43.9345ZM44.1802 43.2957V44.0553L46.0125 44.5061C47.0203 44.7542 47.9091 45.0617 47.9878 45.1898C48.0665 45.3177 47.8302 45.5601 47.4626 45.7281C46.9149 45.9789 46.7944 46.2157 46.7944 47.0423C46.7944 47.9237 46.871 48.0503 47.4054 48.0503C47.7415 48.0503 48.6735 47.5777 49.4766 47C50.2799 46.4224 51.0192 45.9497 51.1199 45.9497C51.2205 45.9497 52.0448 46.4814 52.9514 47.1313C53.8583 47.7811 54.6671 48.3129 54.7492 48.3129C54.8313 48.3129 54.8985 48.1976 54.8985 48.0571C54.8985 47.9164 54.1414 46.8593 53.216 45.7079C52.2905 44.5565 51.4041 43.3721 51.2462 43.0756C50.979 42.5741 50.7207 42.5363 47.5695 42.5363H44.1802V43.2957ZM55.9904 42.9724C56.037 43.2124 56.7807 43.7961 57.6434 44.2698C58.5061 44.7437 60.2132 45.4214 61.4366 45.7762C62.6603 46.1312 64.3366 46.5061 65.1619 46.6096L66.6624 46.7978V44.6671V42.5363H61.2842C56.4121 42.5363 55.9138 42.5773 55.9904 42.9724ZM65.0942 48.2459C64.3604 48.5061 63.4153 49.1799 62.5814 50.0379L61.2447 51.4128L59.8299 50.8354C59.0517 50.5176 57.8591 49.8736 57.1796 49.4038L55.9442 48.5502V50.7947C55.9442 52.029 56.0087 53.0391 56.0877 53.0391C56.1666 53.0391 56.9234 52.5486 57.7699 51.9492L59.3087 50.8593L61.1783 52.1424C62.2065 52.848 63.1034 53.5157 63.1714 53.6262C63.2391 53.7365 61.6408 53.8268 59.6195 53.8268H55.9442V54.6145V55.4022H61.3033H66.6624V51.595C66.6624 49.501 66.5743 47.7972 66.4664 47.8085C66.3584 47.8197 65.7409 48.0167 65.0942 48.2459ZM29.6713 48.7395C29.0962 48.9538 27.5081 49.4093 26.1421 49.7517C24.7762 50.0941 22.9821 50.5098 22.1555 50.6749L20.6523 50.9758V53.189V55.4022H26.0114H31.3706V54.6145C31.3706 54.1813 31.2822 53.831 31.1745 53.836C31.0668 53.841 30.2245 54.0077 29.303 54.206L27.6278 54.5667L26.5758 53.8686L25.5239 53.1704L28.4473 53.0961L31.3706 53.0218V50.6673C31.3706 48.9491 31.2822 48.3178 31.0438 48.3312C30.8642 48.3415 30.2464 48.5253 29.6713 48.7395ZM32.4162 50.6303V53.0391H36.599H40.7817V50.9385V48.838L38.8864 48.8411C37.8439 48.8427 36.3535 49.0147 35.5742 49.2229C34.7952 49.4311 34.0305 49.5304 33.875 49.4432C33.7197 49.3563 33.3281 49.0457 33.0044 48.7532L32.4162 48.2212V50.6303ZM46.7944 50.9385V53.0391H50.8464H54.8985V50.9385V48.838H50.8464H46.7944V50.9385ZM32.4162 54.6145V55.4022H34.1027C35.0302 55.4022 36.4123 55.5351 37.1744 55.6974C37.9362 55.8599 39.089 56.2629 39.736 56.593C40.3831 56.9233 41.2792 57.5879 41.7275 58.0702C42.1759 58.5523 42.6723 59.1832 42.8307 59.4721C43.054 59.8793 43.1204 59.304 43.1267 56.912L43.1345 53.8268H37.7754H32.4162V54.6145ZM44.1802 56.9049V59.9828L44.6123 59.3337C44.8502 58.9766 45.3501 58.3485 45.7234 57.9379C46.0969 57.5272 46.9317 56.9215 47.5787 56.5919C48.2257 56.2624 49.3786 55.8599 50.1403 55.6974C50.9024 55.5351 52.2845 55.4022 53.212 55.4022H54.8985V54.6145V53.8268H49.5393H44.1802V56.9049Z"/>
</svg>
