<?xml version="1.0" encoding="UTF-8" standalone="no"?>
<svg
   width="31"
   height="31"
   viewBox="0 0 31 31"
   fill="none"
   version="1.1"
   id="svg13"
   sodipodi:docname="box-seam-svgrepo-com 1.svg"
   inkscape:export-filename="logo.svg"
   inkscape:export-xdpi="96"
   inkscape:export-ydpi="96"
   xmlns:inkscape="http://www.inkscape.org/namespaces/inkscape"
   xmlns:sodipodi="http://sodipodi.sourceforge.net/DTD/sodipodi-0.dtd"
   xmlns="http://www.w3.org/2000/svg"
   xmlns:svg="http://www.w3.org/2000/svg">
  <sodipodi:namedview
     id="namedview15"
     pagecolor="#ffffff"
     bordercolor="#000000"
     borderopacity="0.25"
     inkscape:showpageshadow="2"
     inkscape:pageopacity="0.0"
     inkscape:pagecheckerboard="0"
     inkscape:deskcolor="#d1d1d1"
     showgrid="false" />
  <g
     clip-path="url(#clip0_1302_12)"
     id="g6">
    <path
       id="path2"
       style="fill:#851d40;fill-opacity:1"
       d="m 15.5,0.1484375 c -0.36715,0 -0.735233,0.0694846 -1.082031,0.20898438 L 0.60742188,5.8828125 C 0.2392976,6.0300623 0,6.3860008 0,6.78125 v 16.783203 c 0,0.794398 0.48444962,1.502375 1.2207031,1.796875 l 13.9179689,5.56836 c 0.2325,0.093 0.490156,0.093 0.722656,0 l 13.921875,-5.56836 c 0.736198,-0.2945 1.220703,-1.006377 1.220703,-1.796875 V 6.78125 c 0,-0.3952492 -0.241275,-0.7511877 -0.609375,-0.8984375 L 16.582031,0.35742188 C 16.235233,0.21792214 15.86715,0.1484375 15.5,0.1484375 Z m 0,1.9394531 c 0.122075,0 0.245078,0.023813 0.361328,0.070312 L 20.158203,3.875 8.234375,8.6445312 3.5761719,6.78125 15.138672,2.1582031 c 0.11625,-0.0465 0.239253,-0.070312 0.361328,-0.070312 z M 22.765625,4.921875 27.423828,6.78125 15.5,11.546875 10.841797,9.6875 Z M 29.0625,8.2148438 V 23.560547 L 16.46875,28.597656 V 13.251953 Z m -5.394531,4.1855472 -2.119141,0.875 v 2.58789 l -2.083984,0.859375 v 1.75 l 2.083984,-0.861328 v 4.707031 c 0,0.5715 0.16966,0.961222 0.50586,1.169922 0.347298,0.1928 0.79465,0.175819 1.34375,-0.05078 l 2.353515,-0.970703 V 20.71875 l -1.613281,0.666016 c -0.3138,0.129498 -0.470703,0.02555 -0.470703,-0.310547 v -4.337891 l 2.285156,-0.943359 v -1.748047 l -2.285156,0.943359 z" />
  </g>
  <defs
     id="defs11">
    <clipPath
       id="clip0_1302_12">
      <rect
         width="31"
         height="31"
         fill="#ffffff"
         id="rect8"
         x="0"
         y="0" />
    </clipPath>
  </defs>
</svg>
